HIERARCHY
ROOT Hips
{
	OFFSET 0.000000 0.000000 0.000000
	CHANNELS 6 Xposition Yposition Zposition Xrotation Yrotation Zrotation
	JOINT LeftUpLeg_virtual
	{
		OFFSET 0.000000 0.000000 0.000000
		CHANNELS 3 Xrotation Yrotation Zrotation
		JOINT LeftUpLeg
		{
			OFFSET 10.205400 -3.823500 0.155100
			CHANNELS 3 Xrotation Yrotation Zrotation
			JOINT LeftLeg
			{
				OFFSET 0.708757 -12.982077 0.567790
				CHANNELS 3 Xrotation Yrotation Zrotation
				JOINT LeftFoot
				{
					OFFSET -0.708756 -10.717838 -2.184338
					CHANNELS 3 Xrotation Yrotation Zrotation
					JOINT LeftToeBase
					{
						OFFSET 0.108149 -7.191104 7.560241
						CHANNELS 3 Xrotation Yrotation Zrotation
						JOINT LeftToe_End
						{
							OFFSET 0.070230 0.081724 4.490308
							CHANNELS 3 Xrotation Yrotation Zrotation
							End Site
							{
								OFFSET 0 0 0
							}
						}
					}
				}
			}
		}
	}
	JOINT RightUpLeg_virtual
	{
		OFFSET 0.000000 0.000000 0.000000
		CHANNELS 3 Xrotation Yrotation Zrotation
		JOINT RightUpLeg
		{
			OFFSET -10.205400 -3.823500 0.005500
			CHANNELS 3 Xrotation Yrotation Zrotation
			JOINT RightLeg
			{
				OFFSET -0.708756 -12.982134 0.610632
				CHANNELS 3 Xrotation Yrotation Zrotation
				JOINT RightFoot
				{
					OFFSET 0.708754 -10.717769 -1.945823
					CHANNELS 3 Xrotation Yrotation Zrotation
					JOINT RightToeBase
					{
						OFFSET -0.108140 -7.191069 7.372968
						CHANNELS 3 Xrotation Yrotation Zrotation
						JOINT RightToe_End
						{
							OFFSET -0.070227 0.081735 4.479403
							CHANNELS 3 Xrotation Yrotation Zrotation
							End Site
							{
								OFFSET 0 0 0
							}
						}
					}
				}
			}
		}
	}
	JOINT Spine_virtual
	{
		OFFSET 0.000000 0.000000 0.000000
		CHANNELS 3 Xrotation Yrotation Zrotation
		JOINT Spine
		{
			OFFSET 0.000000 6.876099 0.125700
			CHANNELS 3 Xrotation Yrotation Zrotation
			JOINT Spine1
			{
				OFFSET 0.000000 5.730043 0.104720
				CHANNELS 3 Xrotation Yrotation Zrotation
				JOINT Spine1_split
				{
					OFFSET 0.000000 5.730043 0.104720
					CHANNELS 3 Xrotation Yrotation Zrotation
					JOINT Spine2
					{
						OFFSET 0.000000 5.730043 0.104720
						CHANNELS 3 Xrotation Yrotation Zrotation
						JOINT Neck_virtual
						{
							OFFSET 0.000000 0.000000 0.000000
							CHANNELS 3 Xrotation Yrotation Zrotation
							JOINT Neck
							{
								OFFSET 0.000000 10.314075 0.188496
								CHANNELS 3 Xrotation Yrotation Zrotation
								JOINT Head
								{
									OFFSET 0.000000 7.643700 -2.377400
									CHANNELS 3 Xrotation Yrotation Zrotation
									JOINT HeadTop_End
									{
										OFFSET 0.000000 43.788605 -13.619600
										CHANNELS 3 Xrotation Yrotation Zrotation
										End Site
										{
											OFFSET 0 0 0
										}
									}
								}
							}
						}
						JOINT LeftShoulder_virtual
						{
							OFFSET 0.000000 0.000000 0.000000
							CHANNELS 3 Xrotation Yrotation Zrotation
							JOINT LeftShoulder
							{
								OFFSET 2.196100 4.412489 0.087492
								CHANNELS 3 Xrotation Yrotation Zrotation
								JOINT LeftShoulder_split
								{
									OFFSET 2.196100 4.412489 0.087492
									CHANNELS 3 Xrotation Yrotation Zrotation
									JOINT LeftArm
									{
										OFFSET 8.771219 -2.981674 -0.026999
										CHANNELS 3 Xrotation Yrotation Zrotation
										JOINT LeftForeArm
										{
											OFFSET 8.512804 0.000000 -0.000000
											CHANNELS 3 Xrotation Yrotation Zrotation
											JOINT LeftHand
											{
												OFFSET 18.484802 0.000000 -0.000000
												CHANNELS 3 Xrotation Yrotation Zrotation
												End Site
												{
													OFFSET 0 0 0
												}
											}
										}
									}
								}
							}
						}
						JOINT RightShoulder_virtual
						{
							OFFSET 0.000000 0.000000 0.000000
							CHANNELS 3 Xrotation Yrotation Zrotation
							JOINT RightShoulder
							{
								OFFSET -2.196100 4.412496 0.070690
								CHANNELS 3 Xrotation Yrotation Zrotation
								JOINT RightShoulder_split
								{
									OFFSET -2.196100 4.412496 0.070690
									CHANNELS 3 Xrotation Yrotation Zrotation
									JOINT RightArm
									{
										OFFSET -8.771282 -2.981682 -0.094208
										CHANNELS 3 Xrotation Yrotation Zrotation
										JOINT RightForeArm
										{
											OFFSET -8.494598 0.000000 0.000000
											CHANNELS 3 Xrotation Yrotation Zrotation
											JOINT RightHand
											{
												OFFSET -18.483803 0.000000 0.000001
												CHANNELS 3 Xrotation Yrotation Zrotation
												End Site
												{
													OFFSET 0 0 0
												}
											}
										}
									}
								}
							}
						}
					}
				}
			}
		}
	}
}
MOTION
Frames: 4
Frame Time: 0.03333333
0.004027 28.771162 0.444733 0.000000 0.000000 0.000000 0.696423 -60.560760 4.036415 -34.874427 9.620610 27.344579 44.867157 -9.391373 -8.693798 -11.970046 -2.088754 -12.276669 0.612777 0.738645 1.092104 0.000000 0.000000 0.000000 -2.249302 -60.421998 2.688581 -28.093820 -11.207102 -29.046107 45.902259 5.458434 -6.823551 -23.587087 -0.806988 27.869807 0.554060 -1.356832 -1.821285 0.000000 0.000000 0.000000 -1.486417 -60.303774 1.532387 12.281187 2.239440 -2.281172 8.241122 0.708900 -5.623435 0.276288 -0.258840 1.221852 0.000000 0.000000 0.000000 7.965595 0.307657 -4.349071 -21.031116 21.171008 9.530666 3.417163 27.777199 -2.518227 0.000000 0.000000 0.000000 9.863971 0.263644 -4.961118 -5.200279 -16.339436 -1.571223 -2.033695 -3.968166 1.270158 -23.910150 9.606632 -32.498054 4.262024 -42.330313 0.393718 0.000000 0.000000 0.000000 9.307976 0.560287 -5.405529 -5.368524 14.128163 1.726419 3.325837 -2.821814 3.549092 -32.460303 -22.107618 35.000997 165.216798 69.652801 -162.334868 0.000000 0.000000 0.000000 
-0.145995 28.666666 0.592247 0.000000 0.000000 0.000000 0.308239 -60.278113 3.660169 -34.563728 10.130307 27.473755 45.193149 -9.885172 -8.614460 -13.107097 -2.086360 -12.493090 0.209267 0.665421 1.365723 0.000000 0.000000 0.000000 -2.662629 -60.277772 2.190199 -27.515243 -10.924369 -29.084329 46.820759 5.443350 -6.873804 -24.382862 -1.119778 27.232118 1.431166 -1.369365 -1.690571 0.000000 0.000000 0.000000 -1.860570 -60.325993 1.318328 12.316317 2.039185 -2.245037 7.995452 0.694135 -5.641154 -0.545588 -0.904582 1.738366 0.000000 0.000000 0.000000 7.702852 0.293992 -4.359014 -21.019385 20.597632 9.861899 3.674350 26.765083 -2.374141 0.000000 0.000000 0.000000 9.590923 0.279430 -4.954877 -5.200905 -16.060889 -1.561323 -0.517565 -5.266137 1.008506 -25.262191 9.538427 -33.589337 5.527295 -41.963019 1.505387 0.000000 0.000000 0.000000 8.902140 0.549771 -5.360551 -5.463339 14.083022 1.622368 4.550636 -2.427089 1.822855 -30.902453 -21.335701 34.968735 167.317341 66.463587 -164.435302 0.000000 0.000000 0.000000 
-0.397085 28.550474 0.770290 0.000000 0.000000 0.000000 -0.837790 -60.096526 2.475528 -33.900432 10.460503 27.632961 46.121389 -10.528478 -8.429669 -15.131936 -1.704667 -12.322225 -0.249851 0.663301 1.610053 0.000000 0.000000 0.000000 -3.445825 -59.945394 1.101323 -25.638761 -10.742702 -29.099225 47.830073 5.577357 -7.039669 -25.562046 -1.659173 27.118609 1.531035 -1.578307 -1.600946 0.000000 0.000000 0.000000 -2.914249 -60.045163 0.309380 12.164506 1.903794 -2.015822 7.624587 0.737387 -5.423459 -0.683260 -0.904785 2.048048 0.000000 0.000000 0.000000 7.248140 0.314604 -4.225984 -20.115708 19.558800 10.132331 3.607633 25.222338 -1.740445 0.000000 0.000000 0.000000 9.091696 0.339762 -4.711391 -5.147782 -14.898181 -1.059953 0.409379 -5.783874 0.438926 -25.217533 9.830640 -32.905338 6.717392 -44.525867 3.105538 0.000000 0.000000 0.000000 8.297590 0.524359 -5.111046 -5.507584 12.842272 0.728871 6.182978 -2.188548 0.710754 -25.442354 -19.785593 35.328634 163.257927 62.803453 -160.780795 0.000000 0.000000 0.000000 
-0.718404 28.511171 0.945791 0.000000 0.000000 0.000000 -2.515257 -59.963160 0.718635 -32.651057 10.547328 27.509188 46.964715 -11.243872 -8.105688 -17.296720 -1.105140 -11.826439 -0.898346 0.726015 1.819033 0.000000 0.000000 0.000000 -4.436402 -59.359692 -0.313790 -22.519038 -10.856316 -29.083058 48.119502 5.737329 -7.200774 -26.817681 -2.399477 27.350441 1.120666 -1.907319 -1.533321 0.000000 0.000000 0.000000 -4.251097 -59.369145 -1.183217 11.876370 1.830265 -1.689809 7.181362 0.811927 -4.999533 -0.044785 -0.364354 2.139362 0.000000 0.000000 0.000000 6.668175 0.381409 -3.941049 -18.398750 18.192649 10.331161 3.353345 23.506921 -0.872958 0.000000 0.000000 0.000000 8.387180 0.454585 -4.222050 -5.115815 -12.768256 -0.108750 0.769831 -5.640915 0.108984 -23.458747 11.081334 -30.356632 7.675991 -50.178289 4.941915 0.000000 0.000000 0.000000 7.549012 0.488697 -4.673250 -5.602030 10.402895 -0.802676 7.496151 -2.076846 -0.037013 -17.623910 -17.969738 36.169267 155.502548 59.852231 -153.888328 0.000000 0.000000 0.000000 
